<?xml version="1.0" encoding="UTF-8"?>
<!DOCTYPE svg PUBLIC "-//W3C//DTD SVG 1.1//EN" "http://www.w3.org/Graphics/SVG/1.1/DTD/svg11.dtd">
<!-- Creator: CorelDRAW X5 -->
<svg xmlns="http://www.w3.org/2000/svg" xml:space="preserve" width="170mm" height="40mm" style="shape-rendering:geometricPrecision; text-rendering:geometricPrecision; image-rendering:optimizeQuality; fill-rule:evenodd; clip-rule:evenodd"
viewBox="0 0 170 40"
 xmlns:xlink="http://www.w3.org/1999/xlink">
 <defs>
  <style type="text/css">
   <![CDATA[
    .fil4 {fill:#2E95C7;fill-rule:nonzero}
    .fil0 {fill:#4F4F4E;fill-rule:nonzero}
    .fil2 {fill:#59A54C;fill-rule:nonzero}
    .fil1 {fill:#898989;fill-rule:nonzero}
    .fil3 {fill:#BCBDBD;fill-rule:nonzero}
   ]]>
  </style>
 </defs>
 <g id="Warstwa_x0020_1">
  <metadata id="CorelCorpID_0Corel-Layer"/>
  <path class="fil0" d="M49.4551 14.5652l-1.7638 6.6746 -1.6666 0 -1.1077 -4.282c-0.0589,-0.2237 -0.0945,-0.4734 -0.1069,-0.7497l-0.0187 0c-0.0279,0.3045 -0.0684,0.5542 -0.121,0.7497l-1.1356 4.282 -1.7363 0 -1.7548 -6.6746 1.6433 0 0.9401 4.445c0.0402,0.1895 0.0699,0.4438 0.0886,0.7635l0.0278 0c0.0124,-0.2392 0.0572,-0.4996 0.1348,-0.7822l1.2104 -4.4263 1.6104 0 1.0936 4.4824c0.0402,0.1644 0.0759,0.4033 0.1073,0.7165l0.0187 0c0.0123,-0.2448 0.0448,-0.4932 0.0973,-0.7447l0.9218 -4.4542 1.5173 0z"/>
  <path class="fil0" d="M54.696 16.4737l-1.9364 5.1477c-0.4653,1.2383 -1.1667,1.857 -2.1036,1.857 -0.3571,0 -0.6502,-0.0402 -0.8799,-0.121l0 -1.173c0.1955,0.115 0.4082,0.1725 0.6379,0.1725 0.3785,0 0.6424,-0.1785 0.7909,-0.5351l0.2515 -0.5913 -1.936 -4.7568 1.6287 0 0.889 2.8998c0.0561,0.1799 0.0995,0.3926 0.1306,0.6375l0.0187 0c0.0278,-0.1799 0.079,-0.3895 0.1534,-0.6283l0.8982 -2.909 1.457 0z"/>
  <path class="fil0" d="M58.508 18.9219l0 -0.3584c0,-0.3105 -0.09,-0.568 -0.2699,-0.7726 -0.1799,-0.205 -0.4142,-0.3073 -0.7027,-0.3073 -0.326,0 -0.5803,0.1281 -0.7634,0.3839 -0.1831,0.2561 -0.2749,0.6074 -0.2749,1.0544 0,0.4188 0.0886,0.7415 0.2653,0.968 0.1771,0.2265 0.4223,0.3398 0.7356,0.3398 0.2977,0 0.5404,-0.1193 0.7285,-0.3585 0.1876,-0.2388 0.2815,-0.5552 0.2815,-0.9493zm1.4428 2.3178l-1.4707 0 0 -0.6562 -0.0187 0c-0.3351,0.515 -0.8269,0.7726 -1.4753,0.7726 -0.5958,0 -1.0753,-0.2103 -1.4383,-0.6308 -0.363,-0.4205 -0.5447,-1.0075 -0.5447,-1.7614 0,-0.7885 0.2001,-1.4199 0.6005,-1.8944 0.4004,-0.4749 0.9246,-0.7123 1.5734,-0.7123 0.6141,0 1.0424,0.2201 1.2844,0.6611l0.0187 0 0 -2.8349 1.4707 0 0 7.0563z"/>
  <polygon class="fil0" points="64.9636,21.2398 60.6861,21.2398 60.6861,20.6298 63.0787,17.5578 60.9236,17.5578 60.9236,16.4737 64.9449,16.4737 64.9449,17.1998 62.6783,20.1553 64.9636,20.1553 "/>
  <path class="fil0" d="M67.2255 21.2397l-1.4707 0 0 -4.766 1.4707 0 0 4.766zm-0.726 -5.5202c-0.248,0 -0.4516,-0.0734 -0.6096,-0.2209 -0.1584,-0.1474 -0.2374,-0.3281 -0.2374,-0.5422 0,-0.2205 0.079,-0.4004 0.2374,-0.5401 0.158,-0.1397 0.3616,-0.2095 0.6096,-0.2095 0.2515,0 0.4554,0.0698 0.6121,0.2095 0.1566,0.1397 0.2353,0.3196 0.2353,0.5401 0,0.2233 -0.0787,0.4064 -0.2353,0.5489 -0.1567,0.1429 -0.3606,0.2142 -0.6121,0.2142z"/>
  <path class="fil0" d="M71.0469 19.3034l0 -0.321 -0.8657 0.1115c-0.478,0.0624 -0.7168,0.278 -0.7168,0.647 0,0.1676 0.0582,0.3048 0.1746,0.412 0.1164,0.1069 0.2738,0.1605 0.4724,0.1605 0.2762,0 0.5013,-0.0952 0.6748,-0.2861 0.174,-0.1908 0.2607,-0.4321 0.2607,-0.7239zm1.3822 1.9364l-1.3913 0 0 -0.6844 -0.0187 0c-0.3196,0.5338 -0.7931,0.8009 -1.4196,0.8009 -0.4625,0 -0.8262,-0.1313 -1.0915,-0.3934 -0.2653,-0.2625 -0.3979,-0.6121 -0.3979,-1.0495 0,-0.925 0.5475,-1.4584 1.6428,-1.6013l1.294 -0.1721c0,-0.5214 -0.2822,-0.7821 -0.847,-0.7821 -0.568,0 -1.1077,0.1693 -1.6199,0.5073l0 -1.1078c0.2049,-0.1054 0.485,-0.1986 0.8403,-0.279 0.3552,-0.0808 0.6787,-0.1214 0.9705,-0.1214 1.3589,0 2.0383,0.6781 2.0383,2.0342l0 2.8486z"/>
  <polygon class="fil0" points="75.8132,17.7303 75.1849,18.1307 75.1849,21.2397 73.7188,21.2397 73.7188,19.0384 73.1088,19.4292 73.1088,18.2284 73.7188,17.8467 73.7188,14.1834 75.1849,14.1834 75.1849,16.939 75.8132,16.5389 "/>
  <path class="fil0" d="M84.8382 20.7929c-0.6516,0.3754 -1.4616,0.5634 -2.4296,0.5634 -1.0739,0 -1.9202,-0.2974 -2.539,-0.8914 -0.6191,-0.5941 -0.9285,-1.4129 -0.9285,-2.4554 0,-1.0488 0.338,-1.9036 1.0146,-2.5647 0.6763,-0.6607 1.5762,-0.9913 2.6995,-0.9913 0.7073,0 1.331,0.0977 1.8711,0.2932l0 1.4104c-0.5151,-0.2978 -1.1451,-0.447 -1.8898,-0.447 -0.6237,0 -1.1317,0.2029 -1.5244,0.6075 -0.3923,0.405 -0.5884,0.9458 -0.5884,1.6221 0,0.6858 0.176,1.2163 0.5281,1.5917 0.3521,0.3757 0.8276,0.5634 1.4266,0.5634 0.3599,0 0.6453,-0.0512 0.8562,-0.1538l0 -1.3032 -1.3356 0 0 -1.2008 2.8392 0 0 3.3559z"/>
  <path class="fil0" d="M88.9108 18.3726c0,-0.6826 -0.2762,-1.0238 -0.8287,-1.0238 -0.2356,0 -0.4395,0.0978 -0.6117,0.2932 -0.1725,0.1954 -0.2773,0.4389 -0.3143,0.7306l1.7547 0zm1.3638 0.9031l-3.1094 0c0.0498,0.6918 0.4858,1.0379 1.3081,1.0379 0.5243,0 0.985,-0.1242 1.3822,-0.3726l0 1.0616c-0.4406,0.2356 -1.0131,0.3538 -1.7173,0.3538 -0.7698,0 -1.367,-0.2134 -1.7921,-0.6403 -0.4251,-0.4265 -0.6378,-1.0216 -0.6378,-1.7851 0,-0.7912 0.2296,-1.4178 0.689,-1.8803 0.4593,-0.4625 1.0241,-0.6935 1.6943,-0.6935 0.695,0 1.2326,0.2064 1.6129,0.6191 0.38,0.4128 0.5701,0.9726 0.5701,1.6803l0 0.6191z"/>
  <path class="fil0" d="M93.4581 17.4836c-0.3475,0 -0.6173,0.1196 -0.8099,0.3584 -0.1923,0.2389 -0.2886,0.5772 -0.2886,1.0146 0,0.9155 0.3693,1.373 1.1077,1.373 0.7045,0 1.0566,-0.4699 1.0566,-1.41 0,-0.8908 -0.3553,-1.336 -1.0658,-1.336zm-0.037 3.8728c-0.7945,0 -1.4189,-0.223 -1.8736,-0.6682 -0.4547,-0.4452 -0.6819,-1.0495 -0.6819,-1.8129 0,-0.7881 0.2356,-1.4048 0.7076,-1.85 0.4717,-0.4455 1.1092,-0.6681 1.9128,-0.6681 0.7913,0 1.4118,0.2226 1.8616,0.6681 0.4502,0.4452 0.6752,1.034 0.6752,1.7664 0,0.7913 -0.2321,1.4164 -0.696,1.8754 -0.4639,0.4596 -1.0993,0.6893 -1.9057,0.6893z"/>
  <path class="fil0" d="M100.198 18.9219l0 -0.3584c0,-0.3105 -0.09,-0.568 -0.2699,-0.7726 -0.1799,-0.205 -0.4142,-0.3073 -0.7027,-0.3073 -0.326,0 -0.5804,0.1281 -0.7634,0.3839 -0.1831,0.2561 -0.2749,0.6074 -0.2749,1.0544 0,0.4188 0.0886,0.7415 0.2653,0.968 0.1771,0.2265 0.4223,0.3398 0.7356,0.3398 0.2977,0 0.5404,-0.1193 0.7285,-0.3585 0.1876,-0.2388 0.2815,-0.5552 0.2815,-0.9493zm1.4428 2.3178l-1.4707 0 0 -0.6562 -0.0187 0c-0.3351,0.515 -0.8269,0.7726 -1.4753,0.7726 -0.5958,0 -1.0753,-0.2103 -1.4383,-0.6308 -0.363,-0.4205 -0.5447,-1.0075 -0.5447,-1.7614 0,-0.7885 0.2001,-1.4199 0.6005,-1.8944 0.4004,-0.4749 0.9246,-0.7123 1.5733,-0.7123 0.6142,0 1.0425,0.2201 1.2845,0.6611l0.0187 0 0 -2.8349 1.4707 0 0 7.0563z"/>
  <path class="fil0" d="M105.797 18.3726c0,-0.6826 -0.2762,-1.0238 -0.8287,-1.0238 -0.236,0 -0.4399,0.0978 -0.612,0.2932 -0.1718,0.1954 -0.2766,0.4389 -0.3144,0.7306l1.7551 0zm1.3635 0.9031l-3.109 0c0.0493,0.6918 0.4857,1.0379 1.3081,1.0379 0.5242,0 0.9849,-0.1242 1.3821,-0.3726l0 1.0616c-0.4406,0.2356 -1.0128,0.3538 -1.7173,0.3538 -0.7697,0 -1.3666,-0.2134 -1.7921,-0.6403 -0.4251,-0.4265 -0.6375,-1.0216 -0.6375,-1.7851 0,-0.7912 0.2293,-1.4178 0.6887,-1.8803 0.4593,-0.4625 1.0241,-0.6935 1.6944,-0.6935 0.6946,0 1.2326,0.2064 1.6125,0.6191 0.3803,0.4128 0.5701,0.9726 0.5701,1.6803l0 0.6191z"/>
  <polygon class="fil0" points="111.811,21.2398 107.533,21.2398 107.533,20.6298 109.925,17.5578 107.771,17.5578 107.771,16.4737 111.792,16.4737 111.792,17.1998 109.525,20.1553 111.811,20.1553 "/>
  <path class="fil0" d="M113.347 15.7195c-0.2484,0 -0.4516,-0.0733 -0.61,-0.2208 -0.1584,-0.1475 -0.237,-0.3284 -0.237,-0.5426 0,-0.2201 0.0786,-0.4 0.237,-0.5397 0.1584,-0.1397 0.3616,-0.2096 0.61,-0.2096 0.2512,0 0.4551,0.0699 0.6117,0.2096 0.157,0.1397 0.235,0.3196 0.235,0.5397 0,0.2237 -0.078,0.4068 -0.235,0.5493 -0.1566,0.1429 -0.3605,0.2141 -0.6117,0.2141zm0.726 5.4367c0,0.7041 -0.1725,1.2672 -0.5168,1.6894 -0.3443,0.422 -0.8407,0.6329 -1.4894,0.6329 -0.2138,0 -0.4481,-0.0465 -0.7028,-0.1397l0 -1.1543c0.205,0.1147 0.3863,0.1722 0.5447,0.1722 0.4622,0 0.6936,-0.363 0.6936,-1.089l0 -4.7939 1.4707 0 0 4.6824z"/>
  <path class="fil0" d="M116.781 21.2397l-1.4708 0 0 -4.766 1.4708 0 0 4.766zm-0.7257 -5.5202c-0.2484,0 -0.4516,-0.0734 -0.61,-0.2209 -0.1584,-0.1474 -0.2374,-0.3281 -0.2374,-0.5422 0,-0.2205 0.079,-0.4004 0.2374,-0.5401 0.1584,-0.1397 0.3616,-0.2095 0.61,-0.2095 0.2512,0 0.4551,0.0698 0.6117,0.2095 0.157,0.1397 0.235,0.3196 0.235,0.5401 0,0.2233 -0.078,0.4064 -0.235,0.5489 -0.1566,0.1429 -0.3605,0.2142 -0.6117,0.2142z"/>
  <path class="fil0" d="M126.272 20.7929c-0.6516,0.3754 -1.4616,0.5634 -2.4296,0.5634 -1.0739,0 -1.9198,-0.2974 -2.539,-0.8914 -0.6191,-0.5941 -0.9285,-1.4129 -0.9285,-2.4554 0,-1.0488 0.338,-1.9036 1.0146,-2.5647 0.6763,-0.6607 1.5762,-0.9913 2.6998,-0.9913 0.7073,0 1.331,0.0977 1.8708,0.2932l0 1.4104c-0.5151,-0.2978 -1.1448,-0.447 -1.8895,-0.447 -0.6237,0 -1.1317,0.2029 -1.5247,0.6075 -0.3923,0.405 -0.5884,0.9458 -0.5884,1.6221 0,0.6858 0.176,1.2163 0.5284,1.5917 0.3521,0.3757 0.8273,0.5634 1.4267,0.5634 0.3595,0 0.6452,-0.0512 0.8558,-0.1538l0 -1.3032 -1.3356 0 0 -1.2008 2.8392 0 0 3.3559z"/>
  <path class="fil0" d="M131.313 14.2162l-1.457 1.5032 -1.0611 0 1.2103 -1.5032 1.3078 0zm-1.578 3.2675c-0.3475,0 -0.6173,0.1196 -0.81,0.3584 -0.1919,0.2388 -0.2882,0.5771 -0.2882,1.0146 0,0.9154 0.369,1.373 1.1077,1.373 0.7042,0 1.0566,-0.4703 1.0566,-1.4104 0,-0.8904 -0.3556,-1.3356 -1.0661,-1.3356zm-0.037 3.8724c-0.7945,0 -1.4192,-0.2226 -1.8736,-0.6678 -0.4548,-0.4456 -0.6816,-1.0495 -0.6816,-1.8129 0,-0.7881 0.2357,-1.4048 0.7073,-1.8503 0.4717,-0.4452 1.1092,-0.6678 1.9128,-0.6678 0.7916,0 1.4118,0.2226 1.862,0.6678 0.4497,0.4455 0.6748,1.0343 0.6748,1.7663 0,0.7913 -0.2318,1.4168 -0.696,1.8757 -0.4636,0.4594 -1.0989,0.689 -1.9057,0.689z"/>
  <path class="fil0" d="M136.358 17.8002c-0.1771,-0.0963 -0.3835,-0.1443 -0.6192,-0.1443 -0.3196,0 -0.5694,0.1171 -0.7493,0.3514 -0.1802,0.2342 -0.2702,0.5531 -0.2702,0.9563l0 2.2762 -1.4704 0 0 -4.7661 1.4704 0 0 0.8845 0.0187 0c0.2328,-0.6456 0.6519,-0.9684 1.2569,-0.9684 0.1549,0 0.2759,0.0187 0.3631,0.0561l0 1.3543z"/>
  <path class="fil0" d="M141.645 21.2398l-1.4662 0 0 -2.6483c0,-0.7388 -0.2638,-1.1078 -0.7912,-1.1078 -0.2547,0 -0.4643,0.0978 -0.6287,0.2932 -0.164,0.1954 -0.2466,0.4438 -0.2466,0.7447l0 2.7182 -1.4707 0 0 -4.7661 1.4707 0 0 0.7539 0.0187 0c0.3507,-0.5803 0.8612,-0.8703 1.5314,-0.8703 1.0548,0 1.5826,0.6548 1.5826,1.9643l0 2.9182z"/>
  <path class="fil0" d="M144.28 21.2397l-1.4707 0 0 -4.766 1.4707 0 0 4.766zm-0.726 -5.5202c-0.2484,0 -0.4516,-0.0734 -0.6096,-0.2209 -0.1588,-0.1474 -0.2375,-0.3281 -0.2375,-0.5422 0,-0.2205 0.0787,-0.4004 0.2375,-0.5401 0.158,-0.1397 0.3612,-0.2095 0.6096,-0.2095 0.2511,0 0.455,0.0698 0.612,0.2095 0.1567,0.1397 0.235,0.3196 0.235,0.5401 0,0.2233 -0.0783,0.4064 -0.235,0.5489 -0.157,0.1429 -0.3609,0.2142 -0.612,0.2142z"/>
  <path class="fil0" d="M149.13 21.0675c-0.332,0.1923 -0.8117,0.2886 -1.4383,0.2886 -0.7323,0 -1.325,-0.2219 -1.778,-0.6654 -0.4529,-0.4438 -0.6794,-1.0163 -0.6794,-1.7176 0,-0.81 0.2427,-1.4482 0.7281,-1.9153 0.4858,-0.467 1.1349,-0.7006 1.948,-0.7006 0.5617,0 0.9681,0.0745 1.2196,0.2233l0 1.2474c-0.3073,-0.2293 -0.6502,-0.3443 -1.0287,-0.3443 -0.4219,0 -0.7564,0.1232 -1.0029,0.3701 -0.2466,0.2466 -0.3701,0.5874 -0.3701,1.0216 0,0.422 0.1178,0.7532 0.3535,0.9938 0.236,0.2406 0.5602,0.3606 0.9729,0.3606 0.3662,0 0.7246,-0.1147 1.0753,-0.3444l0 1.1822z"/>
  <polygon class="fil0" points="153.868,21.2398 149.59,21.2398 149.59,20.6298 151.983,17.5578 149.828,17.5578 149.828,16.4737 153.849,16.4737 153.849,17.1998 151.582,20.1553 153.868,20.1553 "/>
  <path class="fil0" d="M157.578 18.3726c0,-0.6826 -0.2762,-1.0238 -0.8287,-1.0238 -0.236,0 -0.4399,0.0978 -0.6121,0.2932 -0.1718,0.1954 -0.2765,0.4389 -0.3143,0.7306l1.7551 0zm1.3635 0.9031l-3.1091 0c0.0494,0.6918 0.4858,1.0379 1.3081,1.0379 0.5243,0 0.985,-0.1242 1.3822,-0.3726l0 1.0616c-0.4406,0.2356 -1.0128,0.3538 -1.7173,0.3538 -0.7698,0 -1.3667,-0.2134 -1.7921,-0.6403 -0.4251,-0.4265 -0.6375,-1.0216 -0.6375,-1.7851 0,-0.7912 0.2293,-1.4178 0.6886,-1.8803 0.4594,-0.4625 1.0241,-0.6935 1.6944,-0.6935 0.6946,0 1.2326,0.2064 1.6126,0.6191 0.3803,0.4128 0.5701,0.9726 0.5701,1.6803l0 0.6191z"/>
  <path class="fil0" d="M160.561 15.7195c-0.2483,0 -0.4515,-0.0733 -0.6099,-0.2208 -0.1584,-0.1475 -0.2371,-0.3284 -0.2371,-0.5426 0,-0.2201 0.0787,-0.4 0.2371,-0.5397 0.1584,-0.1397 0.3616,-0.2096 0.6099,-0.2096 0.2512,0 0.4551,0.0699 0.6117,0.2096 0.157,0.1397 0.235,0.3196 0.235,0.5397 0,0.2237 -0.078,0.4068 -0.235,0.5493 -0.1566,0.1429 -0.3605,0.2141 -0.6117,0.2141zm0.726 5.4367c0,0.7041 -0.1725,1.2672 -0.5168,1.6894 -0.3443,0.422 -0.8407,0.6329 -1.4894,0.6329 -0.2138,0 -0.448,-0.0465 -0.7027,-0.1397l0 -1.1543c0.2049,0.1147 0.3862,0.1722 0.5446,0.1722 0.4622,0 0.6936,-0.363 0.6936,-1.089l0 -4.7939 1.4707 0 0 4.6824z"/>
  <path class="fil0" d="M42.0499 32.6785l-1.4708 0 0 -4.766 1.4708 0 0 4.766zm-0.726 -5.5202c-0.2484,0 -0.4516,-0.0734 -0.61,-0.2209 -0.158,-0.1474 -0.2371,-0.328 -0.2371,-0.5422 0,-0.2205 0.0791,-0.4004 0.2371,-0.5401 0.1584,-0.1393 0.3616,-0.2095 0.61,-0.2095 0.2511,0 0.4554,0.0702 0.612,0.2095 0.1567,0.1397 0.235,0.3196 0.235,0.5401 0,0.2233 -0.0783,0.4064 -0.235,0.5493 -0.1566,0.1425 -0.3609,0.2138 -0.612,0.2138z"/>
  <polygon class="fil0" points="47.5656,32.6785 46.062,32.6785 46.062,26.004 47.5656,26.004 "/>
  <path class="fil0" d="M53.5417 32.6787l-1.4661 0 0 -2.6483c0,-0.7387 -0.2639,-1.1077 -0.7913,-1.1077 -0.2544,0 -0.4639,0.0977 -0.6283,0.2931 -0.1644,0.1955 -0.2466,0.4438 -0.2466,0.7447l0 2.7182 -1.4707 0 0 -4.766 1.4707 0 0 0.7538 0.0183 0c0.3507,-0.5803 0.8612,-0.8703 1.5315,-0.8703 1.0548,0 1.5825,0.6548 1.5825,1.9643l0 2.9182z"/>
  <path class="fil0" d="M56.4693 27.1585c-0.2081,0 -0.3795,-0.0621 -0.5143,-0.1863 -0.1351,-0.1238 -0.2025,-0.2745 -0.2025,-0.4516 0,-0.1859 0.0681,-0.3372 0.2046,-0.4536 0.1369,-0.1165 0.3073,-0.1743 0.5122,-0.1743 0.2078,0 0.3775,0.0589 0.5095,0.1767 0.1319,0.1179 0.1979,0.2685 0.1979,0.4512 0,0.1831 -0.066,0.3355 -0.1979,0.4562 -0.132,0.1213 -0.3017,0.1817 -0.5095,0.1817zm2.0105 5.5202l-4.277 0 0 -0.6099 2.3921 -3.072 -2.1547 0 0 -1.0841 4.0209 0 0 0.726 -2.2666 2.9556 2.2853 0 0 1.0844z"/>
  <path class="fil0" d="M63.8093 27.9126l-1.9364 5.1477c-0.4653,1.2383 -1.1666,1.857 -2.1036,1.857 -0.357,0 -0.6502,-0.0402 -0.8798,-0.121l0 -1.1729c0.1954,0.115 0.4081,0.1725 0.6378,0.1725 0.3785,0 0.6424,-0.1785 0.7909,-0.5352l0.2516 -0.5913 -1.9361 -4.7568 1.6288 0 0.889 2.8998c0.0561,0.1799 0.0995,0.3927 0.1305,0.6375l0.0187 0c0.0279,-0.1799 0.079,-0.3895 0.1535,-0.6283l0.8981 -2.909 1.457 0z"/>
  <path class="fil0" d="M69.0036 32.6787l-1.4661 0 0 -2.6483c0,-0.7387 -0.2639,-1.1077 -0.7913,-1.1077 -0.2543,0 -0.4639,0.0977 -0.6283,0.2931 -0.1644,0.1955 -0.2466,0.4438 -0.2466,0.7447l0 2.7182 -1.4707 0 0 -4.766 1.4707 0 0 0.7538 0.0184 0c0.3506,-0.5803 0.8611,-0.8703 1.5314,-0.8703 1.0548,0 1.5825,0.6548 1.5825,1.9643l0 2.9182z"/>
  <path class="fil0" d="M71.6381 32.6785l-1.4708 0 0 -4.766 1.4708 0 0 4.766zm-0.7261 -5.5202c-0.2483,0 -0.4515,-0.0734 -0.6099,-0.2209 -0.1581,-0.1474 -0.2374,-0.328 -0.2374,-0.5422 0,-0.2205 0.0793,-0.4004 0.2374,-0.5401 0.1584,-0.1393 0.3616,-0.2095 0.6099,-0.2095 0.2512,0 0.4551,0.0702 0.6118,0.2095 0.1569,0.1397 0.2353,0.3196 0.2353,0.5401 0,0.2233 -0.0784,0.4064 -0.2353,0.5493 -0.1567,0.1425 -0.3606,0.2138 -0.6118,0.2138z"/>
  <path class="fil0" d="M75.7944 29.8115c0,-0.6826 -0.2762,-1.0237 -0.8286,-1.0237 -0.2357,0 -0.4396,0.0977 -0.6117,0.2931 -0.1726,0.1955 -0.2773,0.4389 -0.3144,0.7306l1.7547 0zm1.3639 0.9031l-3.1094 0c0.0497,0.6918 0.4858,1.0379 1.3081,1.0379 0.5242,0 0.985,-0.1242 1.3822,-0.3725l0 1.0615c-0.4406,0.2356 -1.0132,0.3538 -1.7173,0.3538 -0.7698,0 -1.3671,-0.2134 -1.7921,-0.6403 -0.4251,-0.4265 -0.6379,-1.0216 -0.6379,-1.785 0,-0.7913 0.2297,-1.4178 0.689,-1.8803 0.4593,-0.4625 1.0241,-0.6936 1.6944,-0.6936 0.695,0 1.2326,0.2064 1.6129,0.6191 0.3799,0.4128 0.5701,0.9726 0.5701,1.6803l0 0.6191z"/>
  <path class="fil0" d="M81.1423 29.2391c-0.1768,-0.0963 -0.3831,-0.1443 -0.6188,-0.1443 -0.32,0 -0.5697,0.1171 -0.7497,0.3514 -0.1799,0.2342 -0.2698,0.5531 -0.2698,0.9564l0 2.2761 -1.4708 0 0 -4.766 1.4708 0 0 0.8844 0.0187 0c0.2325,-0.6456 0.6516,-0.9684 1.2566,-0.9684 0.1552,0 0.2762,0.0187 0.363,0.0561l0 1.3543z"/>
  <path class="fil0" d="M83.2974 32.6785l-1.4708 0 0 -4.766 1.4708 0 0 4.766zm-0.7261 -5.5202c-0.2483,0 -0.4515,-0.0734 -0.6099,-0.2209 -0.1581,-0.1474 -0.2374,-0.328 -0.2374,-0.5422 0,-0.2205 0.0793,-0.4004 0.2374,-0.5401 0.1584,-0.1393 0.3616,-0.2095 0.6099,-0.2095 0.2512,0 0.4551,0.0702 0.6121,0.2095 0.1566,0.1397 0.235,0.3196 0.235,0.5401 0,0.2233 -0.0784,0.4064 -0.235,0.5493 -0.157,0.1425 -0.3609,0.2138 -0.6121,0.2138z"/>
  <path class="fil0" d="M86.0063 32.6785l-1.4707 0 0 -4.766 1.4707 0 0 4.766zm-0.726 -5.5202c-0.2483,0 -0.4515,-0.0734 -0.6099,-0.2209 -0.1581,-0.1474 -0.2375,-0.328 -0.2375,-0.5422 0,-0.2205 0.0794,-0.4004 0.2375,-0.5401 0.1584,-0.1393 0.3616,-0.2095 0.6099,-0.2095 0.2512,0 0.4551,0.0702 0.6117,0.2095 0.157,0.1397 0.2353,0.3196 0.2353,0.5401 0,0.2233 -0.0783,0.4064 -0.2353,0.5493 -0.1566,0.1425 -0.3605,0.2138 -0.6117,0.2138z"/>
  <path class="fil0" d="M93.3463 23.8818l-1.4566 1.5032 -1.0615 0 1.21 -1.5032 1.3081 0zm-3.635 8.5408l0 -1.4895c0.2699,0.2265 0.5631,0.3966 0.8795,0.5098 0.3164,0.1133 0.6361,0.17 0.9588,0.17 0.1895,0 0.3546,-0.0172 0.4957,-0.0511 0.1411,-0.0342 0.2593,-0.0815 0.3538,-0.1422 0.0946,-0.0603 0.1655,-0.1319 0.2121,-0.2141 0.0462,-0.0822 0.0694,-0.1715 0.0694,-0.2678 0,-0.1301 -0.037,-0.2466 -0.1114,-0.3489 -0.0748,-0.1023 -0.1764,-0.1968 -0.3048,-0.284 -0.1291,-0.0867 -0.2819,-0.1703 -0.4586,-0.2511 -0.1768,-0.0808 -0.3676,-0.163 -0.5726,-0.247 -0.5214,-0.2169 -0.9098,-0.4822 -1.1659,-0.7955 -0.2561,-0.3136 -0.3839,-0.6921 -0.3839,-1.1359 0,-0.3475 0.0695,-0.6463 0.2092,-0.8961 0.1397,-0.2498 0.3299,-0.4551 0.5705,-0.6166 0.2402,-0.1613 0.5189,-0.2801 0.8354,-0.356 0.3164,-0.0762 0.6515,-0.1139 1.005,-0.1139 0.3479,0 0.6558,0.0208 0.9243,0.0624 0.2681,0.0423 0.5158,0.1065 0.7423,0.1933l0 1.3917c-0.1119,-0.0776 -0.2336,-0.1457 -0.3655,-0.2046 -0.132,-0.0589 -0.2674,-0.1079 -0.4071,-0.1467 -0.1397,-0.0388 -0.2787,-0.0674 -0.4167,-0.0861 -0.1383,-0.0187 -0.2691,-0.0279 -0.3933,-0.0279 -0.1708,0 -0.326,0.0162 -0.4653,0.0487 -0.1397,0.0328 -0.2579,0.0787 -0.3539,0.1376 -0.0959,0.0589 -0.1707,0.1295 -0.2233,0.2116 -0.0529,0.0822 -0.079,0.1743 -0.079,0.277 0,0.1115 0.0293,0.2116 0.0882,0.3002 0.0589,0.0882 0.1429,0.1721 0.2512,0.2512 0.109,0.079 0.2406,0.157 0.3958,0.2328 0.1552,0.0762 0.3306,0.1545 0.526,0.235 0.267,0.1118 0.5066,0.2303 0.719,0.3563 0.2127,0.1255 0.3947,0.2674 0.5471,0.4258 0.1517,0.1584 0.2681,0.339 0.3489,0.5422 0.0808,0.2032 0.121,0.4399 0.121,0.7098 0,0.3722 -0.0705,0.6851 -0.2117,0.9377 -0.1411,0.2532 -0.3326,0.4579 -0.5746,0.6145 -0.242,0.1566 -0.5239,0.2692 -0.8449,0.3376 -0.3214,0.0681 -0.6601,0.1023 -1.0171,0.1023 -0.3662,0 -0.7144,-0.031 -1.0449,-0.0931 -0.3306,-0.0621 -0.6167,-0.1552 -0.8587,-0.2794z"/>
  <path class="fil0" d="M98.3267 29.2391c-0.1767,-0.0963 -0.3831,-0.1443 -0.6191,-0.1443 -0.3196,0 -0.5694,0.1171 -0.7493,0.3514 -0.1799,0.2342 -0.2702,0.5531 -0.2702,0.9564l0 2.2761 -1.4704 0 0 -4.766 1.4704 0 0 0.8844 0.0187 0c0.2328,-0.6456 0.6516,-0.9684 1.2569,-0.9684 0.1549,0 0.2759,0.0187 0.363,0.0561l0 1.3543z"/>
  <path class="fil0" d="M101.243 28.9225c-0.3475,0 -0.6174,0.1196 -0.81,0.3584 -0.1922,0.2388 -0.2886,0.5772 -0.2886,1.0146 0,0.9155 0.3694,1.373 1.1078,1.373 0.7045,0 1.0565,-0.4699 1.0565,-1.41 0,-0.8908 -0.3552,-1.336 -1.0657,-1.336zm-0.037 3.8728c-0.7945,0 -1.4189,-0.223 -1.8736,-0.6682 -0.4548,-0.4452 -0.682,-1.0495 -0.682,-1.8129 0,-0.7881 0.2357,-1.4048 0.7077,-1.85 0.4717,-0.4455 1.1091,-0.6681 1.9128,-0.6681 0.7912,0 1.4121,0.2226 1.8619,0.6681 0.4498,0.4452 0.6749,1.034 0.6749,1.7664 0,0.7913 -0.2321,1.4164 -0.696,1.8754 -0.4639,0.4596 -1.0993,0.6893 -1.9057,0.6893z"/>
  <path class="fil0" d="M107.983 30.3608l0 -0.3584c0,-0.3104 -0.0899,-0.568 -0.2702,-0.7726 -0.1796,-0.2049 -0.4138,-0.3072 -0.7027,-0.3072 -0.3257,0 -0.58,0.128 -0.7631,0.3838 -0.1831,0.2561 -0.2745,0.6075 -0.2745,1.0544 0,0.4188 0.0882,0.7416 0.2653,0.9681 0.1768,0.2264 0.4216,0.3397 0.7352,0.3397 0.2978,0 0.5408,-0.1193 0.7285,-0.3584 0.1873,-0.2389 0.2815,-0.5553 0.2815,-0.9494zm1.4429 2.3178l-1.4708 0 0 -0.6562 -0.0186 0c-0.3352,0.5151 -0.8273,0.7726 -1.4754,0.7726 -0.5958,0 -1.0752,-0.2103 -1.4386,-0.6308 -0.3626,-0.4205 -0.5443,-1.0075 -0.5443,-1.7614 0,-0.7884 0.2003,-1.4199 0.6008,-1.8944 0.3996,-0.4748 0.9242,-0.7123 1.573,-0.7123 0.6142,0 1.0424,0.2202 1.2845,0.6611l0.0186 0 0 -2.8349 1.4708 0 0 7.0563z"/>
  <path class="fil0" d="M112.973 28.9225c-0.3475,0 -0.6173,0.1196 -0.8099,0.3584 -0.1923,0.2388 -0.2883,0.5772 -0.2883,1.0146 0,0.9155 0.369,1.373 1.1074,1.373 0.7041,0 1.0566,-0.4699 1.0566,-1.41 0,-0.8908 -0.3553,-1.336 -1.0658,-1.336zm-0.037 3.8728c-0.7945,0 -1.4192,-0.223 -1.8736,-0.6682 -0.4547,-0.4452 -0.6819,-1.0495 -0.6819,-1.8129 0,-0.7881 0.2356,-1.4048 0.7073,-1.85 0.4717,-0.4455 1.1095,-0.6681 1.9131,-0.6681 0.7913,0 1.4118,0.2226 1.8616,0.6681 0.4502,0.4452 0.6752,1.034 0.6752,1.7664 0,0.7913 -0.2321,1.4164 -0.696,1.8754 -0.4639,0.4596 -1.0989,0.6893 -1.9057,0.6893z"/>
  <path class="fil0" d="M123.394 27.9126l-1.3733 4.766 -1.5448 0 -0.7031 -2.7926c-0.0462,-0.1862 -0.073,-0.3894 -0.079,-0.6096l-0.0279 0c-0.0219,0.242 -0.0529,0.4389 -0.0931,0.5909l-0.7543 2.8113 -1.5265 0 -1.3451 -4.766 1.4986 0 0.6562 3.109c0.031,0.1461 0.0543,0.3228 0.0698,0.5306l0.0279 0c0.0155,-0.217 0.0434,-0.4 0.0839,-0.5493l0.8192 -3.0903 1.4012 0 0.7352 3.109c0.0184,0.0776 0.0402,0.2576 0.0653,0.5401l0.0324 0c0.0156,-0.1802 0.0403,-0.3598 0.0745,-0.5401l0.6191 -3.109 1.3638 0z"/>
  <path class="fil0" d="M125.563 32.6785l-1.4707 0 0 -4.766 1.4707 0 0 4.766zm-0.726 -5.5202c-0.2484,0 -0.4516,-0.0734 -0.6096,-0.2209 -0.1584,-0.1474 -0.2374,-0.328 -0.2374,-0.5422 0,-0.2205 0.079,-0.4004 0.2374,-0.5401 0.158,-0.1393 0.3612,-0.2095 0.6096,-0.2095 0.2512,0 0.4554,0.0702 0.6121,0.2095 0.1566,0.1397 0.2349,0.3196 0.2349,0.5401 0,0.2233 -0.0783,0.4064 -0.2349,0.5493 -0.1567,0.1425 -0.3609,0.2138 -0.6121,0.2138z"/>
  <path class="fil0" d="M126.489 32.553l0 -1.1914c0.242,0.1457 0.483,0.2544 0.7239,0.3256 0.2399,0.0717 0.4675,0.1073 0.6816,0.1073 0.2607,0 0.4664,-0.0356 0.6167,-0.1073 0.1506,-0.0712 0.2257,-0.1799 0.2257,-0.3256 0,-0.0931 -0.0342,-0.1707 -0.1023,-0.2328 -0.0681,-0.0621 -0.1559,-0.1164 -0.2628,-0.163 -0.1072,-0.0466 -0.2244,-0.0885 -0.3514,-0.1256 -0.1277,-0.037 -0.2501,-0.0794 -0.3679,-0.1256 -0.1891,-0.0716 -0.356,-0.1481 -0.5002,-0.2303 -0.1443,-0.0822 -0.2653,-0.1778 -0.3631,-0.2865 -0.098,-0.1083 -0.1725,-0.2342 -0.2233,-0.3771 -0.0515,-0.1425 -0.0769,-0.3115 -0.0769,-0.5073 0,-0.2667 0.0582,-0.4964 0.1743,-0.6886 0.1164,-0.1926 0.2716,-0.35 0.4653,-0.4727 0.194,-0.1225 0.4159,-0.2124 0.6657,-0.2699 0.2498,-0.0572 0.5101,-0.0861 0.7797,-0.0861 0.2113,0 0.425,0.0162 0.6424,0.049 0.2173,0.0325 0.4314,0.0798 0.6424,0.1419l0 1.1355c-0.1863,-0.1083 -0.3856,-0.1897 -0.5983,-0.2444 -0.2124,-0.054 -0.4213,-0.0812 -0.6259,-0.0812 -0.0959,0 -0.1869,0.0085 -0.272,0.0254 -0.0857,0.0173 -0.1612,0.042 -0.2261,0.0748 -0.0653,0.0325 -0.1161,0.0745 -0.1538,0.1256 -0.037,0.0512 -0.0557,0.1094 -0.0557,0.1743 0,0.0871 0.0278,0.1616 0.0839,0.2236 0.0561,0.0621 0.1288,0.1158 0.2191,0.1606 0.0896,0.0451 0.1898,0.0853 0.2999,0.121 0.1104,0.0356 0.2194,0.0723 0.328,0.1093 0.1958,0.0685 0.3726,0.1429 0.531,0.2233 0.158,0.0808 0.2938,0.1754 0.4071,0.284 0.1129,0.1087 0.2,0.236 0.2603,0.3817 0.0607,0.1461 0.091,0.3196 0.091,0.5214 0,0.2823 -0.0613,0.5236 -0.1838,0.7236 -0.1227,0.2004 -0.2857,0.3633 -0.4886,0.4889 -0.2032,0.1256 -0.4374,0.2173 -0.703,0.2745 -0.2653,0.0575 -0.5408,0.0864 -0.8262,0.0864 -0.5243,0 -1.0097,-0.0808 -1.4567,-0.2423z"/>
  <polygon class="fil0" points="135.77,32.6787 134.006,32.6787 132.484,30.314 132.465,30.314 132.465,32.6787 130.995,32.6787 130.995,25.6224 132.465,25.6224 132.465,30.114 132.484,30.114 133.904,27.9127 135.649,27.9127 133.941,30.1514 "/>
  <path class="fil0" d="M138.907 30.7424l0 -0.3211 -0.8657 0.1115c-0.478,0.0625 -0.7165,0.278 -0.7165,0.647 0,0.1676 0.0578,0.3048 0.1742,0.4121 0.1165,0.1068 0.2738,0.1605 0.4728,0.1605 0.2758,0 0.5009,-0.0953 0.6748,-0.2861 0.1736,-0.1909 0.2604,-0.4322 0.2604,-0.7239zm1.3825 1.9364l-1.3917 0 0 -0.6844 -0.0187 0c-0.3196,0.5337 -0.7927,0.8008 -1.4199,0.8008 -0.4622,0 -0.8259,-0.1313 -1.0912,-0.3934 -0.2652,-0.2624 -0.3979,-0.612 -0.3979,-1.0495 0,-0.925 0.5479,-1.4584 1.6429,-1.6012l1.294 -0.1722c0,-0.5214 -0.2826,-0.7821 -0.847,-0.7821 -0.568,0 -1.1078,0.1693 -1.6196,0.5073l0 -1.1077c0.2046,-0.1055 0.4847,-0.1986 0.8399,-0.2791 0.3553,-0.0808 0.6784,-0.1213 0.9705,-0.1213 1.3589,0 2.0387,0.678 2.0387,2.0341l0 2.8487z"/>
  <path class="fil0" d="M147.638 30.0396l-0.7169 -2.2434c-0.0529,-0.1675 -0.09,-0.3679 -0.1118,-0.6007l-0.0371 0c-0.0155,0.1958 -0.0543,0.3894 -0.1164,0.582l-0.7264 2.2621 1.7086 0zm2.4574 2.6391l-1.6383 0 -0.4745 -1.4849 -2.3742 0 -0.4699 1.4849 -1.6291 0 2.4296 -6.6746 1.7826 0 2.3738 6.6746z"/>
  <path class="fil0" d="M156.407 32.2319c-0.6516,0.3753 -1.4616,0.5633 -2.4296,0.5633 -1.0739,0 -1.9198,-0.2973 -2.539,-0.8914 -0.6191,-0.5941 -0.9285,-1.4129 -0.9285,-2.4554 0,-1.0488 0.338,-1.9035 1.0146,-2.5646 0.6763,-0.6608 1.5762,-0.9914 2.6998,-0.9914 0.7074,0 1.3311,0.0978 1.8708,0.2932l0 1.4104c-0.515,-0.2977 -1.1447,-0.447 -1.8895,-0.447 -0.6237,0 -1.1317,0.2029 -1.5247,0.6075 -0.3923,0.405 -0.5884,0.9458 -0.5884,1.6221 0,0.6858 0.176,1.2164 0.5285,1.5917 0.352,0.3757 0.8272,0.5634 1.4266,0.5634 0.3595,0 0.6452,-0.0511 0.8558,-0.1538l0 -1.3032 -1.3356 0 0 -1.2008 2.8392 0 0 3.356z"/>
  <polygon class="fil0" points="163.482,32.6787 161.974,32.6787 161.974,29.9605 159.21,29.9605 159.21,32.6787 157.706,32.6787 157.706,26.0041 159.21,26.0041 159.21,28.6665 161.974,28.6665 161.974,26.0041 163.482,26.0041 "/>
  <path class="fil1" d="M34.0874 24.4067l0 0.6117c0,0.8297 -0.5884,1.8496 -1.3081,2.2645l-3.7768 2.1812c-2.1759,0.6534 -4.9417,1.125 -7.6256,0.5736 -3.9314,-0.8082 -7.7612,-1.693 -11.114,-1.6048l-1.9914 -1.15c-0.719,-0.4149 -1.3074,-1.4348 -1.3074,-2.2645l0 -1.2809c4.6517,0.1347 6.9508,1.6467 9.99,2.9428 7.9615,2.969 15.102,-0.9729 17.1333,-2.2736z"/>
  <path class="fil2" d="M35.8635 19.1183c0,0 -8.6226,4.9872 -20.0935,0.877 0,0 10.0034,2.0411 18.3173,-0.8075 0,0 -5.1566,-6.1948 -8.9521,-5.8286 -4.8496,0.4688 -13.1727,6.4015 -19.0772,2.9795 0,0 15.0114,18.6055 27.9732,4.5717 0,0 1.1098,-0.1764 2.6278,-0.9546 0,0 0.2988,-1.0136 -0.7955,-0.8375z"/>
  <path class="fil0" d="M34.0874 21.4394l0 2.9672c-2.0313,1.3007 -9.1718,5.2426 -17.1333,2.2737 -3.0392,-1.2958 -5.3383,-2.8081 -9.99,-2.9429l0 -5.7782c0.8978,0.9455 2.2574,2.2684 3.9659,3.6019 1.8493,1.4439 3.7211,2.5954 5.5644,3.423 2.3188,1.0404 4.5988,1.5681 6.7769,1.5681l0.0003 0c3.9476,0 7.5851,-1.7201 10.8158,-5.1128z"/>
  <path class="fil3" d="M29.0025 29.4641l-7.1688 4.1388c-0.7194,0.4152 -1.8966,0.4152 -2.6159,0l-8.9549 -5.17c3.3528,-0.0882 7.1826,0.7966 11.1139,1.6048 2.6839,0.5514 5.4497,0.0801 7.6257,-0.5736z"/>
  <polygon class="fil4" points="22.4044,6.845 20.7929,6.845 20.7929,12.4897 24.2957,12.4897 "/>
  <polygon class="fil4" points="28.3217,12.4899 24.541,6.8451 23.0131,6.8451 24.9043,12.4899 "/>
  <polygon class="fil4" points="20.7928,6.2677 22.0677,6.2677 20.7928,4.3899 "/>
  <polygon class="fil4" points="32.2755,12.4899 26.6762,6.8451 25.2355,6.8451 29.0162,12.4899 "/>
  <path class="fil4" d="M12.7005 13.0671l2.1177 3.1754c0.6844,-0.1983 1.367,-0.4226 2.0401,-0.659 0.0293,-0.0102 0.0582,-0.0205 0.0878,-0.0314l-0.8304 -2.485 -3.4152 0z"/>
  <polygon class="fil4" points="25.5577,6.2677 23.2569,5.1318 24.7897,6.2677 "/>
  <path class="fil4" d="M28.8447 7.8496c-0.0085,-0.0187 -0.0187,-0.0378 -0.0282,-0.0568l-0.0695 0 -0.7426 -0.429 5.0839 5.1262 0.9853 0 0 -0.1118c0,-0.2064 -0.0367,-0.4251 -0.1023,-0.6431 -0.1983,-0.6573 -0.665,-1.3099 -1.2058,-1.6218l-2.1728 -1.2552 -1.748 -1.0085z"/>
  <path class="fil4" d="M12.0068 13.0671l-3.2893 0 3.7031 3.7338c0.6004,-0.1005 1.2061,-0.236 1.8122,-0.3961l-2.226 -3.3377z"/>
  <polygon class="fil4" points="22.7651,6.2677 23.8203,6.2677 21.6969,4.6936 "/>
  <path class="fil4" d="M27.9736 13.593l0.3513 -0.526 -1.8238 0c0.4671,0.1076 0.9588,0.2826 1.4725,0.526z"/>
  <polygon class="fil4" points="16.2318,6.2677 17.7657,5.1276 15.4603,6.2677 "/>
  <path class="fil4" d="M11.7095 16.904l-3.8051 -3.8369 -0.9539 0 0 3.2816c0.9857,0.4335 2.0779,0.6456 3.3161,0.6456l0.0007 0c0.2745,0 0.5525,-0.011 0.8319,-0.0314 0.2025,-0.0149 0.4057,-0.0346 0.6103,-0.0589z"/>
  <path class="fil4" d="M16.7243 13.0671l0.7652 2.291c0.1273,-0.0462 0.255,-0.0928 0.3817,-0.1394 0.4709,-0.1742 0.9356,-0.3503 1.3903,-0.5224 0.3214,-0.1217 0.6392,-0.2417 0.9543,-0.3592l0 -1.27 -3.4915 0z"/>
  <path class="fil4" d="M24.2946 13.0737l0.0024 -0.0067 -3.5041 0 0 1.0562c0.9172,-0.3351 1.7992,-0.6343 2.6236,-0.8505 0.3006,-0.0783 0.5937,-0.145 0.8781,-0.199z"/>
  <path class="fil4" d="M29.0187 13.0671l-0.5275 0.7892c0.0297,0.0162 0.059,0.0325 0.0886,0.049 0.2021,0.1122 0.4075,0.2346 0.6156,0.3662 0.3358,0.2131 0.6794,0.4498 1.0294,0.7119 0.0356,0.0261 0.0713,0.0533 0.1065,0.0805l1.9872 -1.9968 -3.2998 0z"/>
  <path class="fil4" d="M33.1326 13.0671l-2.3431 2.3548c0.2134,0.1715 0.4289,0.3514 0.6459,0.5394 1.209,1.0478 2.1703,2.0835 2.6381,2.6109l0 -5.5051 -0.9409 0z"/>
  <path class="fil4" d="M7.9097 12.4899l5.0895 -5.1145 -0.7221 0.4176 -0.0699 0c-0.0098,0.0187 -0.0194,0.0378 -0.0282,0.0565l-1.748 1.0089 -2.1735 1.2549c-0.5401,0.3118 -1.0064,0.9645 -1.2054,1.6217 -0.0656,0.2183 -0.1016,0.4371 -0.1016,0.6434l0 0.1115 0.9592 0z"/>
  <polygon class="fil4" points="12.0104,12.4899 15.7858,6.8451 14.3422,6.8451 8.7239,12.4899 "/>
  <polygon class="fil4" points="16.1114,12.4899 18.0087,6.8451 16.4804,6.8451 12.7047,12.4899 "/>
  <polygon class="fil4" points="20.2159,6.845 18.6178,6.845 16.7203,12.4897 20.2159,12.4897 "/>
  <polygon class="fil4" points="19.32,4.6911 17.1991,6.2676 18.2567,6.2676 "/>
  <polygon class="fil4" points="20.2159,4.3952 18.953,6.2677 20.2159,6.2677 "/>
 </g>
</svg>
